<svg data-v-423bf9ae="" xmlns="http://www.w3.org/2000/svg" viewBox="0 0 566 182" class="iconLeft"><!----><!----><!----><g data-v-423bf9ae="" id="69faa108-5bde-4b58-a88c-d7e3604a6289" fill="black" transform="matrix(3.340757369995117,0,0,3.340757369995117,199.71124267578125,56.95030212402344)"><path d="M5.49 12.03C5.49 10.92 5.53 8.90 5.53 8.61C5.53 7.60 5.03 6.58 3.57 6.58C3.43 6.58 1.89 7.06 1.64 7.22C1.11 7.66 0.91 7.95 0.91 8.32C0.91 8.60 0.95 8.85 1.47 8.85C1.78 8.85 2.07 8.74 2.07 8.67C2.07 8.37 2.07 8.05 2.25 7.67C2.46 7.22 3.26 7.14 3.46 7.14C3.96 7.14 4.35 7.59 4.35 8.67L4.35 10.00C2.53 10.35 1.61 10.74 1.27 10.91C0.95 11.06 0.66 11.52 0.66 12.10C0.66 13.27 1.61 13.99 2.14 13.99C3.08 13.71 3.71 13.37 4.37 12.96C4.41 13.38 4.70 13.86 5.14 13.99C5.22 13.92 5.64 13.59 6.68 13.41C6.68 13.41 6.71 13.36 6.71 13.26C6.71 13.20 6.71 13.10 6.65 13.03C6.48 13.03 6.27 13.05 6.15 13.05C5.59 13.05 5.49 12.49 5.49 12.03ZM2.80 13.15C2.28 13.15 1.90 12.42 1.90 12.03C1.90 11.58 2.03 11.30 2.28 11.17C2.74 10.91 3.30 10.64 4.35 10.50C4.35 11.58 4.31 12.40 4.31 12.40C3.98 12.71 3.26 13.15 2.80 13.15ZM13.83 9.79C13.83 8.76 13.86 7.39 13.96 6.65C13.96 6.65 13.90 6.52 13.75 6.48C13.30 6.59 13.17 6.61 12.78 6.69C12.18 6.80 11.98 6.80 11.55 6.87C11.55 6.87 11.51 6.93 11.51 7.04C11.51 7.10 11.54 7.15 11.55 7.22C11.55 7.22 11.83 7.25 12.01 7.28C12.71 7.42 12.71 7.99 12.71 9.10L12.71 10.79C12.71 11.20 12.68 11.82 12.67 12.12C12.17 12.50 11.51 12.99 10.56 12.99C9.32 12.99 9.32 11.28 9.32 10.70C9.32 9.74 9.32 7.42 9.44 6.65C9.44 6.65 9.38 6.52 9.24 6.48C9.24 6.48 8.71 6.61 8.25 6.69C7.73 6.78 7.53 6.80 7.17 6.87C7.17 6.87 7.13 6.93 7.13 7.04C7.13 7.10 7.13 7.14 7.17 7.22C7.17 7.22 7.45 7.25 7.63 7.28C8.20 7.39 8.20 7.64 8.20 8.83L8.20 11.51C8.20 12.96 8.74 13.99 9.98 13.99C11.00 13.64 11.84 13.26 12.71 12.71C12.74 13.22 13.05 13.83 13.47 13.99C13.57 13.93 13.97 13.59 15.02 13.41C15.02 13.41 15.04 13.36 15.04 13.26C15.04 13.20 15.04 13.13 14.98 13.03C14.81 13.03 14.62 13.05 14.48 13.05C13.92 13.05 13.85 12.32 13.85 11.79C13.85 11.79 13.83 10.22 13.83 9.79ZM19.98 7.39C20.01 7.21 20.02 7.04 20.12 6.87C20.12 6.76 20.02 6.71 20.02 6.71C19.03 6.80 18.58 6.80 18.00 6.80C18.00 5.81 18.13 4.34 18.13 4.34C18.05 4.26 17.96 4.26 17.88 4.26C17.33 4.91 16.81 5.12 16.81 5.12C16.81 5.12 16.83 5.91 16.83 6.31C16.83 6.47 16.83 6.80 16.72 6.80L15.72 6.80C15.69 6.99 15.69 7.11 15.60 7.31C15.60 7.42 15.69 7.45 15.69 7.45C15.69 7.45 16.16 7.43 16.73 7.43C16.83 7.43 16.83 7.73 16.83 8.26L16.83 11.51C16.83 12.98 17.28 13.99 18.17 13.99C19.28 13.64 19.68 13.47 20.52 13.02C20.52 12.80 20.40 12.66 20.31 12.63C19.71 12.88 19.39 13.02 18.79 13.02C17.99 13.02 17.99 11.37 17.99 10.70L17.99 7.42ZM28.10 10.29C28.10 8.22 26.56 6.58 24.60 6.58C22.50 6.92 20.97 7.98 20.97 10.29C20.97 12.40 22.53 13.99 24.49 13.99C26.57 13.65 28.10 12.60 28.10 10.29ZM24.79 13.38C23.17 13.38 22.26 11.56 22.26 9.74C22.26 8.33 22.81 7.17 24.32 7.17C25.94 7.17 26.81 9.00 26.81 10.81C26.81 12.26 26.31 13.38 24.79 13.38ZM30.52 8.78C30.51 10.23 30.44 11.58 30.38 12.25C30.34 12.70 30.32 13.20 28.95 13.47C28.95 13.47 28.94 13.54 28.94 13.59C28.94 13.66 28.95 13.75 29.01 13.82C29.83 13.72 31.40 13.71 31.85 13.71C32.26 13.71 33.07 13.76 33.92 13.76C37.04 13.76 39.30 11.59 39.30 8.54C39.30 5.82 37.58 3.57 33.92 3.57C33.42 3.57 32.30 3.63 32.23 3.63L30.88 3.63C30.58 3.63 29.93 3.58 29.32 3.58C29.27 3.67 29.27 3.74 29.27 3.79C29.27 3.92 29.32 4.02 29.32 4.02C29.76 4.02 29.96 4.03 30.28 4.09C30.41 4.13 30.52 5.14 30.52 7.15ZM32.97 4.12C36.43 4.12 37.79 6.47 37.79 8.85C37.79 11.58 36.55 13.20 33.77 13.20C32.93 13.20 32.47 13.13 31.81 12.96C31.75 12.54 31.75 11.84 31.75 11.30L31.75 6.89C31.75 6.30 31.79 4.63 31.92 4.17C32.30 4.12 32.42 4.12 32.97 4.12ZM44.39 12.98C42.60 12.98 42 11.24 42 9.79C44.38 9.56 46.84 8.99 46.84 8.99C46.86 8.93 46.87 8.88 46.87 8.82C46.87 8.67 46.79 8.57 46.79 8.57C46.48 8.55 46.42 8.51 46.40 8.39C45.98 6.94 44.60 6.58 43.83 6.58C42.48 6.89 40.85 7.94 40.85 10.35C40.85 12.40 42.06 13.99 43.71 13.99C44.51 13.99 45.01 13.82 45.14 13.72L46.65 12.66C46.62 12.43 46.42 12.36 46.42 12.36C45.86 12.75 45.23 12.98 44.39 12.98ZM42.95 7.28C43.18 7.14 43.46 7.14 43.60 7.14C44.79 7.14 45.35 8.55 45.35 8.62C45.35 8.67 45.33 8.68 45.28 8.71C44.90 8.83 44.49 8.93 43.88 9.04C43.34 9.13 42.39 9.21 42.06 9.21C42.11 8.55 42.32 7.71 42.95 7.28ZM50.05 13.78C50.16 13.80 50.96 13.99 51.28 13.99C51.73 13.99 55.22 13.65 55.22 10.29C55.22 8.34 53.87 6.83 52.58 6.58C51.42 7.04 51.24 7.11 50.12 7.81C50.08 7.04 49.57 6.58 49.35 6.58C49.35 6.58 48.79 6.97 47.73 7.15C47.73 7.15 47.71 7.21 47.71 7.28C47.71 7.34 47.71 7.43 47.77 7.53C47.94 7.53 48.12 7.50 48.26 7.50C48.82 7.50 48.93 8.04 48.93 9.46L48.93 12.88C48.93 14.56 48.90 16.69 48.79 17.47C48.73 17.91 48.59 18.31 47.75 18.51C47.75 18.51 47.73 18.56 47.73 18.62C47.73 18.69 47.75 18.80 47.81 18.86C48.57 18.75 49.35 18.75 49.77 18.75C50.13 18.75 51.02 18.79 51.79 18.79C51.81 18.70 51.81 18.63 51.81 18.58C51.81 18.45 51.79 18.35 51.79 18.35C51.18 18.35 50.64 18.35 50.22 18.31C50.08 18.30 50.05 15.72 50.05 14.56ZM50.08 8.44C50.53 8.06 51.20 7.56 51.87 7.56C52.91 7.56 54.04 9.07 54.04 10.81C54.04 12.18 53.20 13.38 51.97 13.38C51.63 13.38 50.05 12.91 50.05 12.60C50.05 11.45 50.05 9.60 50.08 8.44ZM58.35 7.88C58.35 5.71 58.42 2.72 58.65 1.32C58.65 1.32 58.58 1.18 58.42 1.18C57.95 1.46 57.72 1.65 57.18 1.83C56.67 2.00 56.43 2.04 56.06 2.11C56.01 2.18 56.01 2.27 56.01 2.28C56.01 2.30 56.01 2.39 56.06 2.46C56.06 2.46 56.38 2.51 56.56 2.52C57.25 2.60 57.25 3.46 57.25 4.26L57.25 7.84C57.25 10.56 57.20 11.87 57.11 12.43C57.04 12.87 56.91 13.27 55.94 13.47C55.94 13.47 55.93 13.52 55.93 13.58C55.93 13.65 55.94 13.75 56 13.82C56.77 13.72 57.68 13.71 58.09 13.71C58.39 13.71 59.01 13.75 59.63 13.75C59.65 13.66 59.65 13.59 59.65 13.54C59.65 13.41 59.63 13.31 59.63 13.31C59.18 13.31 58.79 13.31 58.53 13.26C58.37 13.20 58.35 10.68 58.35 9.52ZM67.65 10.29C67.65 8.22 66.11 6.58 64.15 6.58C62.05 6.92 60.52 7.98 60.52 10.29C60.52 12.40 62.08 13.99 64.04 13.99C66.12 13.65 67.65 12.60 67.65 10.29ZM64.34 13.38C62.72 13.38 61.81 11.56 61.81 9.74C61.81 8.33 62.36 7.17 63.87 7.17C65.49 7.17 66.36 9.00 66.36 10.81C66.36 12.26 65.86 13.38 64.34 13.38ZM72.04 12.75L70.69 9.39C70.38 8.65 70.13 7.98 70.01 7.22C70.20 7.20 70.32 7.20 70.63 7.20C70.63 7.20 70.66 7.10 70.66 6.97C70.66 6.92 70.66 6.83 70.63 6.76C70.18 6.78 69.65 6.80 69.43 6.80C69.09 6.80 68.61 6.76 67.97 6.66C67.90 6.78 67.90 6.92 67.90 7.03C68.18 7.11 68.33 7.22 68.45 7.36C68.68 7.62 68.95 8.20 69.09 8.55L71.37 14.15L70.87 15.50C70.46 16.56 69.43 18.31 68.84 18.31C68.68 18.31 68.46 18.26 68.29 18.23C68.17 18.40 68.17 18.52 68.17 18.68C69.06 18.86 69.65 19.14 69.82 19.14C70.21 19.14 70.99 16.79 71.25 16.17C71.36 15.88 71.81 14.66 72.20 13.71L74.23 8.83C74.61 7.95 74.80 7.66 75.05 7.39C75.19 7.25 75.31 7.20 75.56 7.08C75.56 7.03 75.53 6.86 75.45 6.72C74.91 6.80 74.63 6.80 74.27 6.80L72.90 6.80C72.88 6.86 72.87 6.93 72.87 6.99C72.87 7.14 72.93 7.22 72.93 7.22C73.28 7.22 73.71 7.25 73.96 7.28C73.91 7.81 73.61 8.74 73.26 9.63ZM77.20 9.21C77.20 10.29 77.20 11.82 77.13 12.43C77.07 12.87 76.97 13.27 76.12 13.47C76.12 13.47 76.10 13.52 76.10 13.58C76.10 13.65 76.12 13.75 76.17 13.82C76.86 13.72 77.64 13.71 78.02 13.71C78.20 13.71 78.60 13.75 78.99 13.75C79.03 13.69 79.04 13.61 79.04 13.55C79.04 13.43 78.99 13.31 78.99 13.31C78.76 13.31 78.64 13.31 78.48 13.27C78.36 13.26 78.32 12.14 78.32 11.30C78.32 10.50 78.32 9.55 78.37 8.44C78.90 8.05 79.60 7.55 80.44 7.55C81.51 7.55 81.51 9.16 81.51 10.57C81.51 11.42 81.48 12.14 81.44 12.43C81.38 12.87 81.27 13.27 80.43 13.47C80.43 13.47 80.42 13.54 80.42 13.59C80.42 13.66 80.43 13.75 80.49 13.82C81.17 13.72 81.96 13.71 82.33 13.71C82.56 13.71 82.94 13.75 83.40 13.75C83.44 13.66 83.44 13.59 83.44 13.54C83.44 13.41 83.40 13.31 83.40 13.31C83.08 13.31 83.01 13.31 82.80 13.27C82.63 13.24 82.60 12.35 82.60 10.91C82.60 10.39 82.61 9.28 82.61 9.06C82.61 8.85 82.60 8.62 82.57 8.44C83.12 8.06 83.85 7.55 84.64 7.55C85.71 7.55 85.71 9.16 85.71 10.57C85.71 11.42 85.68 12.14 85.64 12.43C85.58 12.87 85.51 13.27 84.81 13.47C84.81 13.47 84.80 13.52 84.80 13.58C84.80 13.65 84.81 13.75 84.87 13.82C85.48 13.72 86.20 13.71 86.53 13.71C86.76 13.71 87.36 13.75 87.82 13.75C87.86 13.66 87.86 13.59 87.86 13.54C87.86 13.41 87.82 13.31 87.82 13.31C87.50 13.31 87.26 13.31 87.05 13.27C86.93 13.26 86.86 12.35 86.86 10.91C86.86 10.39 86.87 9.28 86.87 9.06C86.87 7.60 86.30 6.58 85.26 6.58C84.24 6.93 83.62 7.21 82.46 7.87C82.24 7.08 81.77 6.58 81.06 6.58C80.04 6.93 79.53 7.17 78.34 7.84C78.19 7.27 77.91 6.58 77.73 6.58C77.57 6.58 77.17 6.89 75.94 7.06C75.94 7.06 75.91 7.14 75.91 7.22C75.91 7.31 75.91 7.38 75.96 7.43C76.13 7.43 76.38 7.42 76.51 7.42C77.20 7.43 77.20 8.26 77.20 9.21ZM92.57 12.98C90.78 12.98 90.17 11.24 90.17 9.79C92.55 9.56 95.02 8.99 95.02 8.99C95.03 8.93 95.05 8.88 95.05 8.82C95.05 8.67 94.96 8.57 94.96 8.57C94.65 8.55 94.60 8.51 94.57 8.39C94.15 6.94 92.78 6.58 92.01 6.58C90.65 6.89 89.03 7.94 89.03 10.35C89.03 12.40 90.23 13.99 91.88 13.99C92.68 13.99 93.18 13.82 93.31 13.72L94.82 12.66C94.79 12.43 94.60 12.36 94.60 12.36C94.04 12.75 93.41 12.98 92.57 12.98ZM91.13 7.28C91.35 7.14 91.63 7.14 91.77 7.14C92.96 7.14 93.52 8.55 93.52 8.62C93.52 8.67 93.51 8.68 93.45 8.71C93.07 8.83 92.67 8.93 92.05 9.04C91.52 9.13 90.57 9.21 90.23 9.21C90.29 8.55 90.50 7.71 91.13 7.28ZM98.39 7.84C98.24 7.27 97.96 6.58 97.78 6.58C97.62 6.58 97.22 6.89 95.98 7.06C95.96 7.14 95.96 7.22 95.96 7.25C95.96 7.28 95.96 7.36 96.01 7.43C96.11 7.43 96.43 7.42 96.56 7.42C97.24 7.43 97.24 8.26 97.24 9.21C97.24 10.29 97.24 11.82 97.17 12.43C97.12 12.87 97.02 13.27 96.17 13.47C96.17 13.47 96.15 13.52 96.15 13.58C96.15 13.65 96.17 13.75 96.22 13.82C96.91 13.72 97.69 13.71 98.07 13.71C98.29 13.71 98.80 13.75 99.26 13.75C99.30 13.66 99.32 13.59 99.32 13.54C99.32 13.41 99.26 13.31 99.26 13.31C98.97 13.31 98.74 13.31 98.53 13.27C98.41 13.26 98.36 12.14 98.36 11.30C98.36 10.50 98.36 9.55 98.42 8.44C98.97 8.06 99.69 7.55 100.53 7.55C101.77 7.55 101.77 9.07 101.77 10.57C101.77 11.42 101.75 12.14 101.71 12.43C101.65 12.87 101.56 13.27 100.70 13.47C100.70 13.47 100.69 13.52 100.69 13.58C100.69 13.65 100.70 13.75 100.76 13.82C101.44 13.71 102.23 13.71 102.61 13.71C102.83 13.71 103.43 13.75 103.89 13.75C103.94 13.66 103.95 13.59 103.95 13.54C103.95 13.41 103.89 13.31 103.89 13.31C103.60 13.31 103.32 13.31 103.11 13.27C102.98 13.26 102.90 12.35 102.90 10.91C102.90 10.39 102.93 9.28 102.93 9.06C102.93 7.60 102.31 6.58 101.15 6.58C100.13 6.93 99.58 7.17 98.39 7.84ZM109.05 7.39C109.07 7.21 109.09 7.04 109.19 6.87C109.19 6.76 109.09 6.71 109.09 6.71C108.09 6.80 107.65 6.80 107.07 6.80C107.07 5.81 107.20 4.34 107.20 4.34C107.11 4.26 107.03 4.26 106.95 4.26C106.40 4.91 105.88 5.12 105.88 5.12C105.88 5.12 105.90 5.91 105.90 6.31C105.90 6.47 105.90 6.80 105.78 6.80L104.79 6.80C104.76 6.99 104.76 7.11 104.66 7.31C104.66 7.42 104.76 7.45 104.76 7.45C104.76 7.45 105.22 7.43 105.80 7.43C105.90 7.43 105.90 7.73 105.90 8.26L105.90 11.51C105.90 12.98 106.34 13.99 107.24 13.99C108.35 13.64 108.75 13.47 109.59 13.02C109.59 12.80 109.47 12.66 109.38 12.63C108.78 12.88 108.46 13.02 107.86 13.02C107.06 13.02 107.06 11.37 107.06 10.70L107.06 7.42Z"></path></g><!----><g data-v-423bf9ae="" id="755f8d16-981c-4ef2-8845-efbac9c6510c" transform="matrix(1.4212075471878052,0,0,1.4212075471878052,0.04559331759810448,0.11125823855400085)" stroke="none" fill="black"><path d="M64 47.4c-9.5 0-17.3 7.7-17.3 17.3C46.7 74.2 54.5 82 64 82s17.3-7.7 17.3-17.3c0-9.5-7.8-17.3-17.3-17.3zM64 78c-7.3 0-13.3-6-13.3-13.3s6-13.3 13.3-13.3 13.3 6 13.3 13.3S71.3 78 64 78z"></path><path d="M109.1 79.2c-.5-2.2-1.8-4-3.6-5l-4.5-2.6c.4-2.3.6-4.6.6-6.8 0-3.3-.3-6.2-1.1-9.1L105 53c4-2.3 5.3-6.6 3.2-10.3l-3.7-6.4c-1.5-2.5-4.3-4.2-7.2-4.2-1.3 0-2.6.3-3.8 1l-5.1 3c-3.9-3.4-8.4-5.9-13.4-7.4V23c0-4.6-3.1-7.9-7.3-7.9h-7.4C55.8 15 52 18.7 52 23v6c-4.8 1.6-9.3 4.2-13.2 7.8L34 34c-1.4-.8-2.9-1.2-4.4-1.2-2.6 0-4.8 1.3-6.1 3.6l-3.7 6.4c-1 1.8-1.4 4-.9 6.1.5 2.2 1.8 4 3.7 5.1l4.7 2.6c-.6 2.7-.9 5.4-.9 8.2 0 2.6.3 5.3.8 7.8L23 75c-4 2.3-5.3 6.6-3.2 10.3l3.7 6.4c1.5 2.5 4.3 4.2 7.2 4.2 1.3 0 2.6-.3 3.8-1l4.1-2.4c4.1 3.8 9.1 6.6 14.4 8.2v4.3c0 4.6 3.1 7.9 7.3 7.9h7.4c4.5 0 8.3-3.6 8.3-8l-.1-4.6c5.3-1.8 10.2-4.7 14.2-8.6L94 94c1.4.8 2.9 1.2 4.4 1.2 2.6 0 4.8-1.3 6.1-3.6l3.7-6.4c1.1-1.7 1.4-4 .9-6zm-4.3 4.1l-3.7 6.4c-.7 1.3-1.9 1.6-2.7 1.6-.8 0-1.6-.2-2.4-.7l-6.6-3.8-1.1 1.1c-4.1 4.3-9.3 7.5-15 9.1l-1.5.4.2 7.6c0 2.1-2 3.9-4.3 3.9h-7.4c-2.4 0-3.3-2.1-3.3-3.9v-7.3l-1.5-.4c-5.7-1.5-11-4.5-15.2-8.7l-1.1-1.1-6.7 3.9c-.5.3-1.1.5-1.8.5-1.5 0-3-.9-3.8-2.2l-3.7-6.4c-1.2-2.1.2-3.9 1.8-4.8l6.8-3.9-.4-1.5c-.7-2.7-1-5.5-1-8.3 0-2.9.4-5.8 1.1-8.7l.4-1.5-7.4-4.1c-.9-.5-1.5-1.4-1.7-2.5-.3-1.1-.1-2.3.5-3.2l3.7-6.4c.7-1.3 1.9-1.6 2.7-1.6.8 0 1.6.2 2.4.7l7.4 4.3 1.1-1.1c4.2-4.1 8.8-6.8 14.1-8.3L56 32v-9c0-2.1 2-3.9 4.3-3.9h7.4c2.4 0 3.3 2.1 3.3 4l.1 8.8 1.5.4c5.4 1.4 10.3 4.1 14.3 7.8l1.1 1 7.6-4.5c.5-.3 1.1-.5 1.8-.5 1.5 0 3 .9 3.8 2.2l3.7 6.4c1.2 2.1-.2 3.9-1.8 4.8l-7.2 4.2.5 1.5c.9 3 1.3 6 1.3 9.5 0 2.5-.3 5-.8 7.4l-.3 1.4 7 4c.9.5 1.5 1.4 1.7 2.5.2 1.2 0 2.3-.5 3.3z"></path><path d="M28.7 15.1c.4 0 .8-.1 1.2-.4 18.2-13 43.3-14.3 63-3.6l-6.4 2.7 20.7 5.6L96.3.9 95.4 8C74.2-3.8 47.2-2.5 27.5 11.5c-.9.6-1.1 1.9-.5 2.8.4.5 1.1.8 1.7.8zM11.2 35.1l2.7 6.4 5.6-20.7L.9 31.7l7.1.9c-11.8 21.2-10.5 48.2 3.5 67.9.4.5 1 .8 1.6.8.4 0 .8-.1 1.2-.4.9-.6 1.1-1.9.5-2.8-13-18.2-14.4-43.2-3.6-63zM98.2 113.2c-18.2 13-43.3 14.3-63.1 3.6l6.4-2.7-20.7-5.6L31.7 127l.9-7.1c9.6 5.4 20.4 8 31.2 8 13 0 25.9-3.9 36.7-11.5.9-.6 1.1-1.9.5-2.8-.7-.8-1.9-1-2.8-.4zM116.5 27.5c-.6-.9-1.9-1.1-2.8-.5-.9.6-1.1 1.9-.5 2.8 13 18.2 14.3 43.3 3.6 63l-2.7-6.4-5.6 20.7L127 96.2l-7.1-.9c11.9-21.1 10.6-48.1-3.4-67.8z"></path></g><!----></svg>